<svg xmlns="http://www.w3.org/2000/svg" width="256" height="256" viewBox="0 0 100 100"><rect width="100" height="100" rx="20" fill="#000000"></rect><path d="M89.70 81.46L89.70 81.46Q89.88 81.77 89.88 82.21L89.88 82.21Q89.88 82.87 89.42 83.35Q88.96 83.84 88.21 83.84L88.21 83.84Q87.73 83.84 87.35 83.62Q86.98 83.40 86.76 82.96L86.76 82.96Q85.93 81.33 85.29 78.89Q84.65 76.46 84.19 73.47Q83.73 70.48 83.44 67.03Q83.16 63.58 82.98 59.89L82.98 59.89Q79.69 60.33 75.58 60.85Q71.47 61.38 66.19 62.08L66.19 62.08Q62.50 62.61 58.68 63.01L58.68 63.01Q49.27 73.25 38.88 78.54Q28.49 83.84 18.03 83.84L18.03 83.84Q13.37 83.84 9.97 82.94Q6.56 82.04 4.34 80.92Q2.12 79.79 1.00 78.83Q-0.12 77.86-0.21 77.77L-0.21 77.77Q-0.65 77.33-0.65 76.63L-0.65 76.63Q-0.65 75.93-0.16 75.44Q0.32 74.96 0.98 74.96L0.98 74.96Q1.73 74.96 2.21 75.49L2.21 75.49Q2.30 75.58 3.26 76.39Q4.23 77.20 6.14 78.13Q8.05 79.05 11.00 79.79Q13.94 80.54 17.99 80.54L17.99 80.54Q23.52 80.54 28.58 79.05Q33.63 77.55 38.13 75.16Q42.64 72.76 46.53 69.69Q50.42 66.61 53.58 63.45L53.58 63.45Q50.46 63.71 47.39 63.84Q44.31 63.97 41.32 63.97L41.32 63.97Q35.43 63.97 30.11 63.32Q24.80 62.66 20.75 61.10Q16.71 59.54 14.32 56.94Q11.92 54.35 11.92 50.48L11.92 50.48Q11.92 48.73 12.65 46.97Q13.37 45.21 14.38 43.78Q15.39 42.35 16.49 41.45Q17.59 40.55 18.38 40.55L18.38 40.55Q19.00 40.55 19.52 40.99Q20.05 41.43 20.05 42.18L20.05 42.18Q20.05 42.57 19.88 42.95Q19.70 43.32 19.35 43.54L19.35 43.54Q19.26 43.63 18.60 44.16Q17.94 44.68 17.19 45.58Q16.45 46.48 15.83 47.74Q15.22 48.99 15.22 50.44L15.22 50.44Q15.22 52.94 16.95 54.86Q18.69 56.77 22.01 58.06Q25.32 59.36 30.16 60.02Q34.99 60.68 41.19 60.68L41.19 60.68Q44.75 60.68 48.70 60.46Q52.66 60.24 57.05 59.80L57.05 59.80Q59.16 57.47 60.79 55.41Q62.41 53.34 63.56 51.71L63.56 51.71Q65.45 49.03 67.51 46.00Q69.58 42.97 71.62 39.85Q73.66 36.73 75.62 33.67Q77.58 30.62 79.29 27.92Q81.00 25.21 82.37 23.00Q83.73 20.78 84.61 19.33L84.61 19.33Q84.87 18.14 85.40 17.15Q85.93 16.16 87.11 16.16L87.11 16.16Q87.77 16.16 88.39 16.71Q89.00 17.26 89.00 18.10L89.00 18.10Q89.00 18.71 88.56 19.41Q88.12 20.12 87.73 20.60L87.73 20.60Q87.60 21.44 87.31 24.16Q87.02 26.88 86.74 30.82Q86.45 34.75 86.25 39.48Q86.06 44.20 86.06 49.03L86.06 49.03Q86.06 50.83 86.06 52.59Q86.06 54.35 86.15 56.15L86.15 56.15Q92.74 55.32 95.77 54.99Q98.80 54.66 98.98 54.66L98.98 54.66Q99.55 54.66 100.10 55.12Q100.65 55.58 100.65 56.33L100.65 56.33Q100.65 56.94 100.23 57.40Q99.81 57.87 99.15 57.95L99.15 57.95Q98.36 58.04 97.31 58.17Q96.25 58.31 94.71 58.48Q93.18 58.66 91.11 58.90Q89.05 59.14 86.28 59.49L86.28 59.49Q86.41 63.10 86.69 66.41Q86.98 69.73 87.40 72.59Q87.81 75.44 88.39 77.73Q88.96 80.01 89.70 81.46ZM65.75 58.79L65.75 58.79Q70.94 58.09 75.18 57.54Q79.42 56.99 82.85 56.55L82.85 56.55Q82.81 54.66 82.78 52.77Q82.76 50.88 82.76 48.95L82.76 48.95Q82.76 42.75 82.98 37.10Q83.20 31.46 83.60 27.28L83.60 27.28Q81.84 30.05 79.71 33.41Q77.58 36.77 75.29 40.27Q73.01 43.76 70.68 47.19Q68.35 50.62 66.24 53.60L66.24 53.60Q65.18 55.10 64.08 56.50Q62.99 57.91 61.89 59.27L61.89 59.27Q62.85 59.18 63.80 59.05Q64.74 58.92 65.75 58.79Z" fill="#fff"></path></svg>